<?xml version="1.0" encoding="UTF-8" standalone="no"?>
<!-- Created with Inkscape (http://www.inkscape.org/) -->

<svg
   width="150mm"
   height="90mm"
   viewBox="0 0 150 90"
   version="1.1"
   id="svg5"
   xml:space="preserve"
   inkscape:version="1.2.1 (9c6d41e410, 2022-07-14)"
   sodipodi:docname="logolightmin.svg"
   inkscape:export-filename="logo2.png"
   inkscape:export-xdpi="96"
   inkscape:export-ydpi="96"
   xmlns:inkscape="http://www.inkscape.org/namespaces/inkscape"
   xmlns:sodipodi="http://sodipodi.sourceforge.net/DTD/sodipodi-0.dtd"
   xmlns="http://www.w3.org/2000/svg"
   xmlns:svg="http://www.w3.org/2000/svg"><sodipodi:namedview
     id="namedview7"
     pagecolor="#ffffff"
     bordercolor="#000000"
     borderopacity="0.25"
     inkscape:showpageshadow="2"
     inkscape:pageopacity="0.0"
     inkscape:pagecheckerboard="0"
     inkscape:deskcolor="#d1d1d1"
     inkscape:document-units="mm"
     showgrid="false"
     inkscape:zoom="15.121561"
     inkscape:cx="441.9848"
     inkscape:cy="101.18003"
     inkscape:window-width="1920"
     inkscape:window-height="1013"
     inkscape:window-x="0"
     inkscape:window-y="39"
     inkscape:window-maximized="1"
     inkscape:current-layer="layer1" /><defs
     id="defs2" /><g
     inkscape:label="Layer 1"
     inkscape:groupmode="layer"
     id="layer1"
     transform="translate(-37.30301,-65.986829)"><path
       style="fill:#000000;stroke-width:0.176389"
       d="m 165.03054,152.60687 c -6.14084,-4.99843 -10.99322,-7.93523 -17.71818,-10.72353 -1.69774,-0.70392 -3.17407,-1.36596 -3.28074,-1.4712 -0.10667,-0.10525 -0.69022,-1.38198 -1.29679,-2.83719 -0.72169,-1.73139 -1.79136,-3.80413 -3.09498,-5.99722 l -1.99212,-3.35139 -2.09095,-1.6712 c -1.15002,-0.91917 -2.42719,-1.93986 -2.83816,-2.26822 l -0.74722,-0.59701 -2.78056,2.5328 c -1.52931,1.39304 -2.90838,2.63253 -3.0646,2.75444 -0.25636,0.20003 -0.34139,-0.19302 -0.87221,-4.03152 l -0.58816,-4.25316 -0.98323,1.03291 c -0.54078,0.5681 -1.67604,1.78697 -2.52279,2.7086 l -1.53956,1.67569 -5.3e-4,-5.26403 -5.3e-4,-5.26403 -1.71979,0.11025 c -0.94589,0.0606 -2.05062,0.1513 -2.45497,0.20148 l -0.73517,0.0912 -0.1978,1.18199 c -0.10879,0.6501 -0.33489,2.0076 -0.50245,3.01668 -0.19501,1.17438 -0.39883,1.88995 -0.56633,1.98824 -0.14393,0.0845 -9.14973,2.65188 -20.012876,5.7054 -18.703026,5.25723 -19.766563,5.5355 -20.040917,5.24371 -0.222814,-0.23698 -3.646538,-4.02358 -4.405587,-4.87252 -0.07605,-0.0851 -1.620545,-0.45247 -3.43221,-0.81648 -2.38137,-0.47846 -3.378719,-0.75326 -3.599963,-0.99187 -0.168315,-0.18153 -1.866857,-1.96754 -3.774538,-3.96891 l -3.468427,-3.63885 v -3.16452 -3.1645 l 6.403581,-4.55242 6.403582,-4.55242 0.655323,-1.25602 c 0.360426,-0.69082 1.467409,-2.595577 2.459958,-4.232797 l 1.804638,-2.976764 11.599764,-5.527297 c 6.379869,-3.040012 12.213932,-5.722488 12.964583,-5.961056 1.309375,-0.41614 1.362569,-0.454032 1.309412,-0.932744 -0.03047,-0.274442 -0.28385,-1.9112 -0.56306,-3.63724 l -0.507651,-3.138256 0.609152,-3.816402 c 0.335033,-2.099021 0.629061,-3.836311 0.653394,-3.860645 0.02433,-0.02433 1.073312,1.178293 2.331062,2.672503 1.25775,1.494211 2.3389,2.659341 2.40256,2.589178 0.0637,-0.07016 0.37245,-1.635693 0.6862,-3.478957 0.31374,-1.843264 0.62069,-3.4058 0.6821,-3.472303 0.0917,-0.09928 4.13091,5.376877 4.68451,6.350983 0.0897,0.157887 0.88866,2.793061 1.7754,5.855941 l 1.61226,5.568875 1.31546,1.93228 1.31545,1.93228 0.87493,-0.0469 c 0.69765,-0.03739 1.87632,-0.51621 5.81679,-2.362976 2.71801,-1.273845 5.5152,-2.579303 6.21596,-2.90102 l 1.27411,-0.584937 -0.64826,1.310107 c -0.35654,0.720561 -0.60968,1.348687 -0.56253,1.395836 0.0472,0.04715 2.33569,-0.429206 5.08564,-1.058566 2.74996,-0.629363 5.02248,-1.121553 5.05005,-1.093756 0.0276,0.0278 -0.51114,0.785549 -1.19713,1.683895 -0.68598,0.898343 -1.20886,1.671743 -1.16194,1.718666 0.0469,0.04692 1.89567,-0.154854 4.10833,-0.448388 2.21266,-0.293536 4.05426,-0.502451 4.09246,-0.464255 0.0382,0.03819 -0.37772,0.64093 -0.92424,1.339416 -0.54653,0.698484 -0.94672,1.316944 -0.88931,1.374353 0.0574,0.05741 3.18201,-0.436402 6.94356,-1.097359 l 6.83918,-1.201741 6.78923,3.656928 c 3.73408,2.011309 6.85832,3.724234 6.94276,3.8065 0.0844,0.08227 0.26998,1.604488 0.41232,3.382716 l 0.25879,3.233143 -2.90802,11.925879 -2.90802,11.92587 2.52369,9.20302 2.5237,9.20303 -1.0896,6.42664 -1.08961,6.42664 z m -84.619134,-48.83626 5.330289,-1.44887 2.203568,-4.061301 c 1.211961,-2.233715 2.175379,-4.089486 2.140927,-4.123937 -0.03445,-0.03445 -2.42338,0.909685 -5.30873,2.098082 -4.425624,1.822793 -5.335032,2.258941 -5.814778,2.788737 -2.707753,2.990249 -5.028092,5.660029 -5.028092,5.785329 0,0.30596 0.450381,0.59082 0.79375,0.50205 0.194028,-0.0502 2.751407,-0.7432 5.683066,-1.54009 z M 168.24632,93.539334 c 0.18311,-0.20852 0.19903,-0.326189 0.0561,-0.414539 -0.25016,-0.154606 -0.24059,-0.164996 -0.98185,1.065977 -0.4668,0.775213 -0.56145,1.057206 -0.39033,1.163006 0.1571,0.09713 0.35297,-0.113554 0.64315,-0.691805 0.2295,-0.457309 0.53232,-0.962497 0.67295,-1.122639 z m -1.53118,-1.241296 c 0,-0.08663 -0.21828,0.04908 -0.48507,0.30157 -0.26679,0.252492 -0.63047,0.539785 -0.80818,0.638429 -0.30138,0.167291 -0.31502,0.114602 -0.20283,-0.783391 0.17399,-1.3925 -0.18547,-1.446641 -0.42621,-0.0642 -0.31781,1.824972 -0.31778,1.824999 0.86396,0.896571 0.58208,-0.45731 1.05833,-0.902351 1.05833,-0.988981 z m -2.99125,0.544567 c 0.1246,-0.30081 0.41148,-0.819452 0.63752,-1.152539 0.34945,-0.514938 0.37041,-0.62118 0.14003,-0.709586 -0.14903,-0.05719 -0.28738,-0.07433 -0.30745,-0.03809 -0.69744,1.259336 -1.14622,2.248743 -1.05939,2.335576 0.21609,0.216096 0.36502,0.106071 0.58929,-0.435363 z m -1.0671,-2.711859 c 0.0153,-0.09459 -0.0419,-0.195235 -0.12717,-0.223658 -0.0853,-0.02842 -0.44041,0.46174 -0.78919,1.089253 -0.4004,0.720388 -0.55943,1.166336 -0.43145,1.209855 0.17888,0.06083 1.27521,-1.627375 1.34781,-2.07545 z m -1.51986,0.614782 c 0.53836,-1.101259 0.58286,-1.284773 0.33181,-1.368457 -0.0867,-0.02889 -0.3455,0.348679 -0.57517,0.839043 -0.22968,0.490363 -0.52566,0.981259 -0.65775,1.090881 -0.19534,0.162123 -0.19746,0.226397 -0.0113,0.344473 0.35046,0.222312 0.37069,0.202221 0.91242,-0.90594 z m -1.92435,-1.063066 c 0.28773,-0.580487 0.60523,-1.057845 0.70556,-1.060796 0.10033,-0.0029 0.0376,-0.0896 -0.13949,-0.192556 -0.17705,-0.102957 -0.3358,-0.160075 -0.35278,-0.126928 -0.017,0.03315 -0.28761,0.544356 -0.60141,1.136022 -0.50649,0.954991 -0.57169,1.312005 -0.23791,1.302591 0.0566,-0.0016 0.33831,-0.477846 0.62603,-1.058333 z m -0.43635,-1.668383 c 0.0153,-0.09459 -0.0419,-0.195234 -0.12717,-0.223658 -0.0853,-0.02843 -0.4404,0.461741 -0.78918,1.089253 -0.4004,0.720388 -0.55944,1.166336 -0.43146,1.209855 0.17888,0.06083 1.27521,-1.627375 1.34781,-2.07545 z m -2.86287,1.041261 c -0.0555,-0.05547 0.16427,-0.569911 0.48831,-1.1432 0.34946,-0.618257 0.51729,-1.086765 0.4125,-1.151528 -0.0972,-0.06005 -0.19582,-0.08139 -0.21924,-0.04743 -0.63812,0.925719 -1.27579,2.263465 -1.11099,2.330722 0.29954,0.122246 0.54682,0.128831 0.42942,0.01143 z"
       id="path181" /><path
       style="fill:#ff0000;stroke:#000000;stroke-width:1;stroke-dasharray:none;stroke-opacity:1"
       d="m 74.255119,105.19787 c -0.09443,-0.0499 -0.204417,-0.15395 -0.24443,-0.23133 -0.07017,-0.13569 -0.06818,-0.14668 0.05606,-0.30985 0.375057,-0.49258 2.010127,-2.36931 3.96476,-4.55075 1.251119,-1.396298 1.322464,-1.455544 2.35277,-1.953746 1.554967,-0.751901 9.660781,-4.074319 9.660781,-3.959767 0,0.04583 -0.920038,1.814615 -1.646028,3.164517 -1.242206,2.309751 -2.640102,4.876166 -2.677038,4.914816 -0.02019,0.0211 -0.82059,0.25179 -1.778646,0.51257 -6.695178,1.82244 -9.260959,2.50799 -9.379892,2.50622 -0.07516,-10e-4 -0.213913,-0.0428 -0.308337,-0.0927 z"
       id="path321" /><path
       style="fill:#ffffff;stroke:#fbfbfb;stroke-width:0.232339;stroke-dasharray:none;stroke-opacity:1"
       d="m 447.61673,87.41595 c -0.0338,-0.01094 -0.26524,-0.08401 -0.51429,-0.162379 -0.24904,-0.07836 -0.46806,-0.18224 -0.48671,-0.230836 -0.23269,-0.606386 1.82333,-4.905552 3.77469,-7.892941 0.28213,-0.431914 0.55383,-0.800983 0.60379,-0.820152 0.0499,-0.01917 0.24408,0.03531 0.43139,0.121061 l 0.34056,0.155914 v 0.284453 c 0,0.625419 -0.61565,2.054979 -1.92356,4.466533 -0.32411,0.597592 -0.73885,1.413648 -0.92166,1.813458 -0.62276,1.362055 -0.75984,1.815238 -0.62668,2.071899 0.0435,0.08383 0.0633,0.168215 0.044,0.187511 -0.0363,0.03629 -0.61282,0.04067 -0.72153,0.0055 z"
       id="path4752"
       transform="matrix(0.26458333,0,0,0.26458333,37.30301,65.986829)" /><path
       style="fill:#ffffff;stroke:#fbfbfb;stroke-width:0.232339;stroke-dasharray:none;stroke-opacity:1"
       d="m 453.94442,91.004463 c -0.0834,-0.134878 -0.0282,-0.612661 0.12247,-1.061614 0.62088,-1.849562 2.91258,-5.856538 4.04946,-7.08037 0.34492,-0.371298 0.40449,-0.41143 0.55473,-0.373722 0.20329,0.05102 0.40984,0.366457 0.41016,0.626371 0.001,1.034098 -2.92337,5.942324 -4.49424,7.542397 -0.39467,0.402011 -0.55503,0.488591 -0.64258,0.346938 z"
       id="path4754"
       transform="matrix(0.26458333,0,0,0.26458333,37.30301,65.986829)" /><path
       style="fill:#ffffff;stroke:#fbfbfb;stroke-width:0.232339;stroke-dasharray:none;stroke-opacity:1"
       d="m 457.9939,93.469331 c -0.5357,-0.21578 -0.41339,-1.148773 0.3809,-2.905699 0.33587,-0.742942 2.96361,-5.77081 3.17892,-6.0825 l 0.11563,-0.167392 0.41118,0.15477 c 0.44136,0.166127 1.208,0.617453 1.3895,0.818005 0.12422,0.137256 0.0872,0.25337 -0.0807,0.25337 -0.27131,0 -1.16616,1.228282 -1.95937,2.689462 -0.23401,0.431074 -0.74342,1.392355 -1.13202,2.13618 -0.80756,1.545747 -1.44534,2.641826 -1.71774,2.952078 -0.19053,0.216991 -0.33287,0.253825 -0.58634,0.151726 z"
       id="path4756"
       transform="matrix(0.26458333,0,0,0.26458333,37.30301,65.986829)" /><path
       style="fill:#ffffff;stroke:#fbfbfb;stroke-width:0.232339;stroke-dasharray:none;stroke-opacity:1"
       d="m 468.60909,98.970911 c -0.19058,-0.229645 0.10676,-1.171607 0.85355,-2.703962 1.38066,-2.833009 3.33449,-5.809212 3.81366,-5.809212 0.14884,0 0.41315,0.31029 0.46486,0.545728 0.18358,0.83586 -2.89318,6.068228 -4.53185,7.7069 -0.37014,0.370141 -0.47241,0.414537 -0.60022,0.260546 z"
       id="path4760"
       transform="matrix(0.26458333,0,0,0.26458333,37.30301,65.986829)" /><path
       style="fill:#ffffff;stroke:#fbfbfb;stroke-width:0.232339;stroke-dasharray:none;stroke-opacity:1"
       d="m 481.35213,105.29176 c -0.24244,-0.37002 -0.1894,-1.15744 0.26252,-3.89733 0.45843,-2.779327 0.73224,-3.926806 1.13876,-4.77236 0.35227,-0.73273 0.56431,-0.7848 0.74645,-0.183303 0.14056,0.464214 0.092,2.281988 -0.10387,3.885413 -0.1991,1.63011 -0.23553,2.71798 -0.0967,2.88583 0.31873,0.38522 1.84161,-0.60816 4.09051,-2.66826 0.62328,-0.570953 1.44453,-1.170407 1.60345,-1.170407 0.2187,0 0.0238,0.264976 -0.78893,1.072737 -0.9509,0.94505 -2.08248,1.90931 -3.8562,3.28605 -2.16171,1.67788 -2.72685,1.97245 -2.99604,1.56163 z"
       id="path4764"
       transform="matrix(0.26458333,0,0,0.26458333,37.30301,65.986829)" /><path
       style="fill:#ff0000;fill-opacity:1;stroke-width:0.213998"
       d="m 447.07777,87.160291 c -0.51584,-0.133144 -0.37992,-0.698806 0.73503,-3.058923 1.38475,-2.931274 3.01703,-5.563958 3.44967,-5.563958 0.2194,0 0.38216,0.158915 0.38355,0.374497 10e-4,0.205974 -0.77356,1.967662 -1.72197,3.914862 -0.9484,1.947201 -1.74037,3.752812 -1.75993,4.01247 -0.0351,0.466183 -0.26307,0.533551 -1.08635,0.321052 z"
       id="path1736"
       transform="matrix(0.26458333,0,0,0.26458333,37.30301,65.986829)" /><path
       style="fill:#ff0000;fill-opacity:1;stroke-width:0.213998"
       d="m 454.08545,90.414321 c 0.37451,-1.582337 3.30048,-6.780488 4.25967,-7.567545 0.67115,-0.550711 0.67937,0.341974 0.0162,1.755182 -0.73259,1.561048 -3.25636,5.416733 -3.94459,6.026361 l -0.48319,0.427997 z"
       id="path1738"
       transform="matrix(0.26458333,0,0,0.26458333,37.30301,65.986829)" /><path
       style="fill:#ff0000;fill-opacity:1;stroke-width:0.213998"
       d="m 457.84956,92.699399 c 0,-0.585057 2.96212,-6.870357 3.68571,-7.820677 0.2874,-0.377455 0.34203,-0.380119 0.98427,-0.048 0.37399,0.193398 0.67998,0.402957 0.67998,0.465685 0,0.06273 -0.28047,0.469528 -0.62326,0.903998 -0.34279,0.43447 -1.3848,2.186274 -2.31557,3.892897 -1.71366,3.142111 -2.41113,3.895978 -2.41113,2.606101 z"
       id="path1740"
       transform="matrix(0.26458333,0,0,0.26458333,37.30301,65.986829)" /><path
       style="fill:#ffffff;fill-opacity:1;stroke-width:0.427001"
       d="m 484.89305,328.78101 c -24.88529,-20.22102 -42.06803,-30.7264 -68.99371,-42.18216 -4.93186,-2.09831 -9.70761,-4.17295 -10.61277,-4.61032 -1.81727,-0.8781 -2.62856,-2.23843 -5.82985,-9.77515 -4.01181,-9.44493 -7.52209,-16.13457 -15.69187,-29.90435 l -4.29841,-7.24477 -10.14505,-8.11303 c -5.57977,-4.46216 -10.46274,-8.34035 -10.85102,-8.6182 -0.60344,-0.4318 -2.31387,0.94786 -11.77663,9.49925 -6.08886,5.50242 -11.19885,10.0051 -11.35553,10.00595 -0.47309,0.003 -1.08842,-3.53247 -2.90501,-16.68907 -0.95374,-6.90744 -1.8384,-13.02166 -1.96591,-13.58716 -0.22361,-0.99167 -0.31053,-0.9504 -2.44854,1.16251 -1.21918,1.20487 -5.38718,5.63025 -9.26222,9.83417 l -7.04552,7.64349 -0.1111,-19.43902 -0.11111,-19.43902 -5.65341,0.2845 c -5.20477,0.26193 -13.15192,1.00962 -13.40333,1.26103 -0.0585,0.0585 -0.79437,4.23138 -1.63518,9.27297 -1.86788,11.20006 -2.49276,13.54148 -3.76202,14.0963 -1.33512,0.5836 -10.8713,3.3298 -47.91409,13.79817 -81.77057,23.10852 -98.24326,27.60172 -101.19168,27.60172 -1.1458,0 -2.26579,-1.07741 -9.73328,-9.36324 l -8.43848,-9.36324 -4.79549,-1.10184 c -2.63751,-0.60602 -7.90952,-1.77851 -11.71556,-2.60556 -3.806045,-0.82703 -7.537023,-1.76311 -8.291063,-2.08016 -0.83609,-0.35155 -6.749583,-6.21909 -15.156828,-15.03904 l -13.785844,-14.4626 -0.02042,-11.80717 -0.02042,-11.80718 24.208289,-17.22892 24.208286,-17.22891 2.69857,-5.02378 c 1.48421,-2.76308 5.65407,-9.947 9.26635,-15.96428 l 6.56778,-10.9405 22.7828,-10.861341 c 44.64778,-21.285143 65.43877,-30.905997 71.19669,-32.945671 1.74621,-0.618576 3.37103,-1.440835 3.61073,-1.82725 0.31364,-0.505629 -0.1483,-4.430571 -1.64794,-14.001849 l -2.08374,-13.299279 2.05816,-12.777198 c 1.13199,-7.027458 2.18585,-13.401528 2.34192,-14.1645982 l 0.28375,-1.3874009 4.04221,4.6654811 c 10.1028,11.660562 12.9013,14.731796 13.4236,14.731796 0.30831,0 0.6673,-0.432339 0.79777,-0.960753 0.29699,-1.202851 4.55238,-24.4722011 4.55238,-24.8933633 0,-0.8079639 15.95715,20.7077813 17.33724,23.3765873 0.63749,1.232768 4.79257,14.92204 9.99638,32.933927 l 3.06268,10.60083 4.9153,7.226478 4.9153,7.226473 h 2.22662 c 4.06819,0 6.54677,-1.008893 34.55827,-14.066788 8.6554,-4.034817 15.81708,-7.256051 15.91483,-7.158298 0.0978,0.09775 -0.57273,1.809833 -1.48997,3.804617 -0.91723,1.994784 -1.80818,4.069494 -1.97987,4.610458 -0.30242,0.952836 -0.25081,0.975168 1.65109,0.714484 1.07979,-0.148003 9.33254,-1.906519 18.33946,-3.907814 9.00691,-2.0013 16.70828,-3.638722 17.11417,-3.638722 0.59923,0 0.47208,0.361704 -0.67631,1.923863 -5.096,6.932124 -7.16638,9.858911 -7.17217,10.138926 -0.012,0.581866 3.05017,0.329632 16.83019,-1.386282 7.49887,-0.933775 13.712,-1.620081 13.80695,-1.525129 0.095,0.09495 -1.28475,2.141314 -3.06602,4.547466 -1.78127,2.406153 -3.23868,4.631637 -3.23868,4.945522 0,0.31452 0.45088,0.570696 1.00444,0.570696 1.24589,0 17.15417,-2.620192 36.46824,-6.006543 l 14.62809,-2.564754 16.32951,8.815025 c 28.4153,15.339213 35.31492,19.167414 35.523,19.709664 0.26294,0.68522 1.36175,11.10556 1.95186,18.51 l 0.46206,5.79777 -10.91048,44.74131 c -6.00074,24.60772 -10.91044,45.09079 -10.91044,45.51795 0,0.42715 4.24437,16.21076 9.43195,35.07469 l 9.43194,34.29805 -3.95121,23.69857 c -2.17318,13.03422 -4.07611,23.84547 -4.22872,24.025 -0.15261,0.17953 -3.6005,-2.37376 -7.66197,-5.67399 z M 159.91202,141.73226 c 9.7463,-2.63513 18.66484,-5.01372 19.81897,-5.28577 l 2.09842,-0.49463 3.80342,-7.02148 c 6.92052,-12.77593 10.14146,-18.9122 10.00085,-19.05281 -0.15027,-0.15027 -12.56199,4.83093 -23.55212,9.45218 -11.76303,4.94626 -11.74954,4.93705 -18.71215,12.77212 -6.00532,6.75782 -10.99118,12.49901 -12.24579,14.10095 -0.58029,0.74093 -0.56205,0.78834 0.21718,0.5647 0.46787,-0.13427 8.82491,-2.40014 18.57122,-5.03526 z M 491.82643,109.8461 c 3.89156,-6.2285 4.31749,-7.40921 2.77986,-7.70533 -0.92852,-0.17881 -5.04921,6.44352 -5.04921,8.11448 0,1.70785 1.06683,1.5155 2.26935,-0.40915 z m -8.1108,-5.18168 c 0.98171,-0.67756 2.74569,-2.14254 3.91995,-3.25552 2.65523,-2.516683 1.89327,-3.106043 -0.96433,-0.7459 -3.29068,2.71786 -3.16066,2.77127 -3.01139,-1.237185 0.10956,-2.942321 0.021,-3.564005 -0.5078,-3.564005 -0.77546,0 -1.62433,3.039609 -1.9974,7.15227 -0.30409,3.3521 -0.0976,3.48519 2.56097,1.65034 z m -5.53952,-3.14484 c 0.60613,-1.23297 1.62194,-3.123201 2.25735,-4.200521 1.25677,-2.130784 1.15659,-3.378756 -0.27121,-3.378756 -0.68821,0 -1.29999,0.859635 -2.78891,3.918771 -2.09177,4.297776 -2.39169,5.902266 -1.10329,5.902266 0.54531,0 1.15861,-0.72132 1.90606,-2.24176 z m -7.85684,-3.629514 c 0.72624,-0.88069 1.93928,-2.79448 2.69565,-4.252869 1.13688,-2.192097 1.27735,-2.747084 0.81054,-3.202511 -0.46344,-0.452134 -0.77158,-0.305558 -1.71885,0.817635 -0.6348,0.752688 -1.7719,2.609717 -2.52689,4.126725 -2.09714,4.213799 -1.72014,5.493824 0.73955,2.51102 z m -2.65058,-2.884761 c 1.69651,-3.139302 2.45199,-5.46417 2.08576,-6.418553 -0.41026,-1.069109 -1.23108,-0.22105 -3.26757,3.375976 -0.9482,1.674793 -1.94672,3.365236 -2.21893,3.75654 -0.38191,0.548987 -0.36328,0.870084 0.0815,1.406069 0.9561,1.15202 1.86451,0.571797 3.3192,-2.120032 z m -7.11456,-4.374262 c 0.99054,-1.820094 2.20494,-3.757087 2.69867,-4.304426 0.89222,-0.989093 0.89254,-0.99894 0.052,-1.6136 -0.46515,-0.340136 -1.12768,-0.564133 -1.47227,-0.497768 -0.92533,0.1782 -4.28309,6.699942 -4.29251,8.3373 -0.0134,2.328319 1.08101,1.630637 3.01416,-1.921506 z m -5.27228,-0.213501 c 1.45239,-1.571822 3.95585,-6.013319 3.95704,-7.020321 0.003,-2.409308 -1.61869,-1.068652 -4.01494,3.319522 -2.09436,3.83533 -2.06059,5.99351 0.0579,3.700799 z m -5.10524,-6.851079 c 1.91912,-4.13304 2.20325,-5.425211 1.19292,-5.425211 -0.75449,0 -1.86204,1.537914 -3.6045,5.005089 -1.62068,3.224863 -1.72105,4.396598 -0.37433,4.369885 0.78866,-0.01563 1.28767,-0.723127 2.78591,-3.949763 z"
       id="path1821"
       transform="matrix(0.26458333,0,0,0.26458333,37.30301,65.986829)" /><path
       style="fill:#000000;stroke-width:0.174399"
       d="m 457.88376,92.940647 c 0,-0.697321 3.51119,-7.961415 3.925,-8.120211 0.126,-0.04835 0.47046,0.03691 0.76547,0.189463 l 0.53638,0.277373 -0.58534,0.825238 c -0.32194,0.45388 -1.233,1.963189 -2.02458,3.354018 -0.79158,1.39083 -1.62973,2.783839 -1.86256,3.095577 -0.42337,0.566857 -0.75437,0.732953 -0.75437,0.378542 z"
       id="path247"
       transform="matrix(0.26458333,0,0,0.26458333,37.30301,65.986829)" /><path
       style="fill:#000000;stroke-width:0.174399"
       d=""
       id="path249"
       transform="matrix(0.26458333,0,0,0.26458333,37.30301,65.986829)" /><path
       style="fill:#000000;stroke-width:0.174399"
       d="m 454.22139,90.299887 c 0,-0.835088 3.71867,-7.227139 4.31637,-7.419438 0.70795,-0.227772 -0.48171,2.347946 -2.44546,5.29464 -1.26877,1.90384 -1.87091,2.58769 -1.87091,2.124798 z"
       id="path251"
       transform="matrix(0.26458333,0,0,0.26458333,37.30301,65.986829)" /><path
       style="fill:#ffffff;stroke-width:0.174399"
       d="m 447.09104,87.040995 c -0.3438,-0.21773 -0.16488,-0.790261 1.02515,-3.280359 1.18399,-2.477479 2.8791,-5.16647 3.18859,-5.058144 0.32835,0.114926 0.19347,0.508059 -1.19007,3.468487 -1.21268,2.594822 -1.8378,4.026479 -2.06236,4.723169 -0.10525,0.326563 -0.56633,0.396995 -0.96131,0.146847 z"
       id="path253"
       transform="matrix(0.26458333,0,0,0.26458333,37.30301,65.986829)" /><path
       style="fill:#ffffff;stroke-width:0.264583"
       id="path1082"
       d="m 157.21685,89.833854 c 0.50626,0.145953 0.99126,0.356427 1.47318,0.567096 0.52139,0.229115 1.03208,0.481104 1.54271,0.732935 0.11543,0.05753 0.23058,0.115648 0.34478,0.175597 0.0233,0.01221 0.0472,0.02334 0.0696,0.03698 0.0179,0.01086 0.0693,0.04677 0.0511,0.03637 -1.11354,-0.637619 -2.22504,-1.278797 -3.33757,-1.918196 0.027,0.01048 0.0572,0.01071 0.0782,0.03291 0.005,0.0057 0.007,0.01536 0.0132,0.0193 3.41236,1.998153 2.20061,2.499381 3.44715,1.97281 0.013,-0.0093 0.0471,-0.01507 0.0622,-0.0048 0.008,0.0053 0.009,0.02815 0.0375,0.04733 1.17422,0.637109 2.74371,1.576999 -2.67476,-1.555534 0.23362,0.138285 0.46141,0.286142 0.68667,0.437582 0.084,0.05742 0.17117,0.110746 0.26212,0.156096 0.28285,0.202039 0.57167,0.395238 0.86158,0.58696 0.49247,0.331955 0.97101,0.683856 1.4598,1.021085 0.3436,0.235312 0.68099,0.479503 1.02289,0.717228 0.14954,0.09516 0.28431,0.213598 0.43817,0.301953 0.0285,0.01807 0.0615,0.0273 0.0845,0.05317 0.006,0.0064 0.007,0.01675 0.0146,0.02109 3.39784,1.991447 2.0962,1.974884 3.43753,1.987661 1.09017,0.751893 0.0493,0.03335 -3.37635,-1.944317 -0.004,-0.0024 0.009,0.0053 0.0133,0.0046 0.0214,-0.0036 0.0407,-0.0365 0.0529,-0.05128 0.006,-0.0071 0.008,-0.0182 0.017,-0.02127 0.005,-0.0016 2.6e-4,0.01011 6e-5,0.01513 -0.001,0.02162 -0.009,0.04278 -0.008,0.06442 0.001,0.05755 0.01,0.05242 0.046,0.09896 1.1441,0.659392 2.2869,1.321038 3.4323,1.97817 0.0585,0.03359 0.12258,0.05677 0.18197,0.08885 0.044,0.02376 0.17404,0.09871 0.13073,0.07368 -3.36284,-1.94327 -4.10027,-2.376157 -2.92884,-1.68927 0.18152,0.109541 0.36213,0.220758 0.53762,0.339784 0.0593,0.03769 0.11583,0.06875 0.14602,0.134249 0.004,0.0033 0.009,0.0065 0.0132,0.0098 0,0 3.7051,1.452192 3.7051,1.452192 v 0 c -0.006,-0.0037 -0.0118,-0.0074 -0.0177,-0.01114 -0.0881,-0.0021 -0.13079,-0.09692 -0.19936,-0.141078 -0.20342,-0.155398 -0.42097,-0.289928 -0.64201,-0.418743 -0.0537,-0.03233 -0.10692,-0.06556 -0.16119,-0.09698 -0.0361,-0.0209 -9.30589,-5.373727 -0.50892,-0.297418 -0.0116,0.0019 -0.0242,5.29e-4 -0.0347,0.0056 -0.026,0.01262 -0.0823,0.109572 -0.0561,0.01654 0.005,-0.02887 0.0264,-0.09501 -0.008,-0.114906 -3.4036,-1.968338 -2.1876,-1.516308 -3.44095,-1.981004 -0.66478,-1.143595 -0.0235,-0.0338 3.36638,1.949273 0.008,0.0047 -0.0186,-0.0035 -0.0271,-0.0074 -0.041,-0.01894 -0.0635,-0.06013 -0.10139,-0.08369 -0.17649,-0.130397 -0.38295,-0.216898 -0.55976,-0.347671 -0.38001,-0.246343 -0.75394,-0.50161 -1.12929,-0.75497 -0.48574,-0.330335 -0.97381,-0.657468 -1.44427,-1.009594 -0.21733,-0.166083 -0.44214,-0.322307 -0.65512,-0.493831 -0.0769,-0.09112 -0.18993,-0.145169 -0.29164,-0.204045 -0.26347,-0.15256 -0.52056,-0.316127 -0.77855,-0.477676 -1.1392,-0.661495 -2.27825,-1.323275 -3.41762,-1.984485 -0.17805,-0.103323 -0.35817,-0.203389 -0.54533,-0.28941 -0.0168,-0.0062 -0.0328,-0.01477 -0.0503,-0.01861 -0.0301,-0.0066 -0.0809,0.02552 -0.0809,-0.02378 0.0564,-1.330274 -0.006,-0.03998 3.38177,1.940845 0.007,0.0042 -0.0166,-0.0024 -0.024,-0.006 -0.0363,-0.01759 -0.0497,-0.05834 -0.0823,-0.08072 -2.20931,-1.27033 -2.36384,-1.538011 -3.7941,-2.118461 -0.45425,-0.195949 -0.90986,-0.388613 -1.36625,-0.579536 -0.59416,-0.252165 -1.18775,-0.507119 -1.7671,-0.792009 0,0 3.09782,2.441749 3.09782,2.441749 z" /><path
       style="fill:#ffffff;stroke-width:0.174673;stroke-dasharray:none;paint-order:stroke markers fill"
       d="m 451.61918,79.249672 c 0.008,-0.203165 0.0497,-0.24449 0.10536,-0.105366 0.0504,0.125894 0.0442,0.276313 -0.0138,0.334264 -0.058,0.05795 -0.0992,-0.04505 -0.0916,-0.228898 z"
       id="path1155"
       transform="matrix(0.26458333,0,0,0.26458333,37.30301,65.986829)" /><path
       style="fill:#ffffff;stroke-width:0.174673;stroke-dasharray:none;paint-order:stroke markers fill"
       d=""
       id="path1157"
       transform="matrix(0.26458333,0,0,0.26458333,37.30301,65.986829)" /><path
       style="fill:#ffffff;stroke-width:0.174673;stroke-dasharray:none;paint-order:stroke markers fill"
       d=""
       id="path1159"
       transform="matrix(0.26458333,0,0,0.26458333,37.30301,65.986829)" /><path
       style="fill:#ffffff;stroke-width:0.0175247;stroke-dasharray:none;paint-order:stroke markers fill"
       d="m 167.08729,96.446358 c -0.0222,-0.0222 -0.008,-0.03809 0.12475,-0.137213 0.50432,-0.377267 1.24116,-1.019212 1.30343,-1.135573 0.0182,-0.03399 0.0178,-0.03401 -0.0323,-0.0018 -0.0701,0.04514 -0.18961,0.143882 -0.43566,0.359907 -0.36309,0.318775 -0.60379,0.492876 -0.7876,0.569677 -0.0925,0.03864 -0.1779,0.03266 -0.20475,-0.01434 -0.0223,-0.0391 -0.0274,-0.446058 -0.007,-0.5775 0.007,-0.04551 0.034,-0.301064 0.0457,-0.432956 0.001,-0.01444 0.006,-0.180323 0.0116,-0.368639 0.008,-0.283726 0.005,-0.35343 -0.0177,-0.406807 -0.0148,-0.03543 -0.0348,-0.06441 -0.0445,-0.06441 -0.0226,0 -0.15784,0.274896 -0.16359,0.332445 -0.002,0.02406 -0.009,0.04768 -0.0151,0.05249 -0.0262,0.02133 -0.12446,0.49689 -0.20784,1.006083 -0.0456,0.278747 -0.0491,0.290484 -0.0723,0.249063 -0.0281,-0.05012 0.12594,-0.914555 0.22192,-1.245071 0.0536,-0.184733 0.13589,-0.360308 0.19463,-0.415492 0.0496,-0.04657 0.0862,-0.03273 0.12806,0.04834 0.0416,0.08069 0.0336,0.714833 -0.0144,1.141716 -0.021,0.186156 -0.0381,0.41593 -0.0381,0.510612 0,0.156998 0.003,0.173127 0.0351,0.183295 0.0997,0.03164 0.47692,-0.223509 0.93999,-0.635751 0.31824,-0.283311 0.45975,-0.387871 0.52495,-0.387871 0.0225,0 0.0397,0.01069 0.0397,0.02468 0,0.08398 -0.41608,0.482917 -0.96234,0.922702 -0.37484,0.301778 -0.55378,0.435192 -0.56655,0.422415 z"
       id="use5088" /><path
       style="fill:#ffffff;stroke-width:0.0175247;stroke-dasharray:none;paint-order:stroke markers fill"
       d="m 166.91238,95.267781 c -0.0222,-0.0222 -0.008,-0.03809 0.12475,-0.137213 0.50432,-0.377267 1.24116,-1.019212 1.30343,-1.135573 0.0182,-0.03399 0.0178,-0.03401 -0.0323,-0.0018 -0.0701,0.04514 -0.18961,0.143882 -0.43566,0.359907 -0.36309,0.318775 -0.60379,0.492876 -0.7876,0.569677 -0.0925,0.03864 -0.1779,0.03266 -0.20475,-0.01434 -0.0223,-0.0391 -0.0274,-0.446058 -0.007,-0.5775 0.007,-0.04551 0.034,-0.301064 0.0457,-0.432956 0.001,-0.01444 0.006,-0.180323 0.0116,-0.368639 0.008,-0.283726 0.005,-0.35343 -0.0177,-0.406807 -0.0148,-0.03543 -0.0348,-0.06441 -0.0445,-0.06441 -0.0226,0 -0.15784,0.274896 -0.16359,0.332445 -0.002,0.02406 -0.009,0.04768 -0.0151,0.05249 -0.0262,0.02133 -0.12446,0.49689 -0.20784,1.006083 -0.0456,0.278747 -0.0491,0.290484 -0.0723,0.249063 -0.0281,-0.05012 0.12594,-0.914555 0.22192,-1.245071 0.0536,-0.184733 0.13589,-0.360308 0.19463,-0.415492 0.0496,-0.04657 0.0862,-0.03273 0.12806,0.04834 0.0416,0.08069 0.0336,0.714833 -0.0144,1.141716 -0.021,0.186156 -0.0381,0.41593 -0.0381,0.510612 0,0.156998 0.003,0.173127 0.0351,0.183295 0.0997,0.03164 0.47692,-0.223509 0.93999,-0.635751 0.31824,-0.283311 0.45975,-0.387871 0.52495,-0.387871 0.0225,0 0.0397,0.01069 0.0397,0.02468 0,0.08398 -0.41608,0.482917 -0.96234,0.922702 -0.37484,0.301778 -0.55378,0.435192 -0.56655,0.422415 z"
       id="use5090" /><rect
       style="fill:#ffffff;stroke-width:0.264999;stroke-dasharray:none;paint-order:stroke markers fill"
       id="rect5202"
       width="0.87413961"
       height="3.1972468"
       x="156.10876"
       y="86.397636" /><rect
       style="fill:#ffffff;stroke-width:0.264999;stroke-dasharray:none;paint-order:stroke markers fill"
       id="rect5204"
       width="3.1997581"
       height="4.3759122"
       x="156.44043"
       y="87.652397" /><rect
       style="fill:#ffffff;stroke-width:0.264999;stroke-dasharray:none;paint-order:stroke markers fill"
       id="rect5206"
       width="3.3513811"
       height="4.296689"
       x="158.57654"
       y="88.88958" /><rect
       style="fill:#ffffff;stroke-width:0.264999;stroke-dasharray:none;paint-order:stroke markers fill"
       id="rect5208"
       width="1.2043147"
       height="1.4258912"
       x="158.24448"
       y="87.623268" /><rect
       style="fill:#ffffff;stroke-width:0.264999;stroke-dasharray:none;paint-order:stroke markers fill"
       id="rect5210"
       width="2.0499704"
       height="1.1254094"
       x="158.80263"
       y="88.218201" /><rect
       style="fill:#ffffff;stroke-width:0.264999;stroke-dasharray:none;paint-order:stroke markers fill"
       id="rect5212"
       width="6.6607189"
       height="3.8732553"
       x="161.46854"
       y="92.331497" /><rect
       style="fill:#ffffff;stroke-width:0.264999;stroke-dasharray:none;paint-order:stroke markers fill"
       id="rect5214"
       width="2.4400728"
       height="2.6929214"
       x="160.41708"
       y="89.618629" /><rect
       style="fill:#ffffff;stroke-width:0.264999;stroke-dasharray:none;paint-order:stroke markers fill"
       id="rect5216"
       width="3.8272154"
       height="2.1376183"
       x="162.71707"
       y="91.517654" /><rect
       style="fill:#ffffff;stroke-width:0.264999;stroke-dasharray:none;paint-order:stroke markers fill"
       id="rect5218"
       width="1.6524429"
       height="1.663156"
       x="162.64413"
       y="90.230812" /><rect
       style="fill:#ffffff;stroke-width:0.264999;stroke-dasharray:none;paint-order:stroke markers fill"
       id="rect5220"
       width="1.870856"
       height="0.99324989"
       x="163.93901"
       y="91.036049" /><rect
       style="fill:#ffffff;stroke-width:0.264999;stroke-dasharray:none;paint-order:stroke markers fill"
       id="rect5222"
       width="0.81592155"
       height="0.6646508"
       x="163.95055"
       y="90.497429" /><rect
       style="fill:#ffffff;stroke-width:0.264999;stroke-dasharray:none;paint-order:stroke markers fill"
       id="rect5224"
       width="2.2561083"
       height="1.2069811"
       x="166.61749"
       y="93.003624" /><rect
       style="fill:#ffffff;stroke-width:0.264999;stroke-dasharray:none;paint-order:stroke markers fill"
       id="rect5226"
       width="1.5563793"
       height="0.62599945"
       x="166.02525"
       y="92.123711" /><rect
       style="fill:#ffffff;stroke-width:0.264999;stroke-dasharray:none;paint-order:stroke markers fill"
       id="rect5228"
       width="2.9859314"
       height="2.4198225"
       x="154.68665"
       y="87.204979" /></g></svg>
